<svg width="512" height="512" viewBox="0 0 64 64" xmlns="http://www.w3.org/2000/svg">
	<defs>
		<style>
			#kitty #head {
				stroke: white;
				stroke-width: 20;
				stroke-linecap: round;
				stroke-linejoin: round;
				fill: lightgrey;
			}

			#kitty #mouth, 
			#kitty #whiskers {
				stroke-width: 20;
				stroke-linecap: round;
			}

			#kitty #eyes {
				fill: black
			}

			#kitty #nose {
				fill: hsl(0, 100%, 75%);
			}

			#kitty #mouth, 
			#kitty #whiskers {
				stroke: grey;
			}

			#frame {
				fill: hsl(0, 100%, 60%);
				stroke: white;
				stroke-width: 25;
			}
		</style>
	</defs>
	<g fill="none" fill-rule="evenodd">
		<rect width="5" height="10" x="42" y="25" fill="#E43535"/>
		<path fill="#D8D8D8" d="M30,2.50247397 C30,1.67268051 30.6657972,1 31.5,1 L31.5,1 C32.3284271,1 33,1.67854309 33,2.50247397 L33,49 L30,49 L30,2.50247397 Z"/>
		<rect width="64" height="5" y="5" fill="#BD7575" rx="2"/>
		<path fill="#B4DFFB" d="M3,10 L60,10 L60,41.0021074 C60,43.2100825 58.1999609,45 55.9918707,45 L7.00812931,45 C4.79450062,45 3,43.2162267 3,41.0021074 L3,10 Z"/>
		<path stroke="#D8D8D8" stroke-linecap="round" stroke-width="2" d="M31.7242161,48 L22,55.2163054"/>
		<path stroke="#D8D8D8" stroke-linecap="round" stroke-width="2" d="M40.7242161,48 L31,55.2163054" transform="matrix(-1 0 0 1 71.724 0)"/>
	</g>

	<g id="photo" transform="scale(0.075) translate(150, 100)">
		<g id="frame">
			<rect x="31" y="56" width="450" height="400" transform="translate(256, 256) scale(0.9) translate(-256, -256)" />
		</g>

		<g id="kitty" transform="translate(256, 256) scale(0.9) translate(-256, -256)">
			<path id="head" d="M 204.6, 186.1 l -42.4 -69.5 c -1.6 -4 -5.4 -6.8 -9.7 -7.2 -4.3 -.4 -8.5, 1.6 -10.8, 5.3 -112.2, 238.9 -53.9, 304.5, 114.4, 303.7, 252.7, 1, 166.6 -206.3, 114.4 -310.7 -5.1-7.9 -16.9-6.9 -20.6, 1.8 l -42.4, 76.5 h -102.9 Z" />

			<g id="eyes">
				<ellipse cx="205" cy="270" rx="20" ry="30" />
				<ellipse cx="305" cy="270" rx="20" ry="30" />
			</g>

			<g id="mouth" style="display:none">
				<line x1="255" y1="315" x2="255" y2="365" />
				<line x1="215" y1="370" x2="255" y2="365" />
				<line x1="255" y1="365" x2="295" y2="370" />
			</g>

			<g id="nose">
				<ellipse cx="255" cy="320" rx="30" ry="20" />
			</g>

			<g id="whiskers">
				<line x1="30" y1="330" x2="150" y2="330" />
				<line x1="60" y1="390" x2="150" y2="360" />
				<line x1="475" y1="330" x2="350" y2="330" />
				<line x1="445" y1="390" x2="350" y2="360" />
			</g>
		</g>

		<g id="frame">
			<rect x="31" y="56" width="450" height="400" transform="translate(256, 256) scale(0.9) translate(-256, -256)" fill="none" />
		</g>
	</g>
</svg>